<svg width="204" height="204" viewBox="0 0 204 204" fill="none" xmlns="http://www.w3.org/2000/svg">
<g filter="url(#filter0_dd_6967_21)">
<path d="M180 104C180 145.974 145.974 180 104 180C62.0264 180 28 145.974 28 104C28 62.0264 62.0264 28 104 28C145.974 28 180 62.0264 180 104Z" fill="#FFEDCD"/>
</g>
<path d="M81.588 103.586C81.588 103.586 77.42 108.752 77.92 111.919L75.087 114.419V115.919C75.087 115.919 81.92 118.752 88.42 116.752V119.252L88.587 121.752L91.92 123.085C91.92 123.085 95.753 122.419 96.753 117.085C96.753 117.085 100.753 118.585 102.42 122.919L107.087 122.585C107.087 122.585 107.753 120.085 106.92 118.419L127.42 118.085L129.42 119.919V121.919L130.42 123.085H132.587L134.253 121.252L132.42 114.752L133.92 110.085C133.92 110.085 116.587 120.585 92.587 106.919L90.754 103.085C90.754 103.085 86.92 103.752 87.087 104.752C87.087 104.752 86.253 102.086 81.587 103.586H81.588Z" fill="#9B9B9A"/>
<path fill-rule="evenodd" clip-rule="evenodd" d="M108.821 89.4751C109.279 89.167 109.901 89.2887 110.209 89.7468C110.517 90.2051 110.395 90.8265 109.937 91.1347L109.379 90.305C109.937 91.1347 109.937 91.1347 109.937 91.1347L109.934 91.1367L109.929 91.1405L109.91 91.1531C109.893 91.1637 109.871 91.1787 109.842 91.1974C109.784 91.2349 109.701 91.2876 109.599 91.3512C109.394 91.478 109.106 91.6498 108.771 91.8309C108.126 92.1795 107.213 92.6149 106.367 92.7763C105.785 92.8877 105.221 93.003 104.676 93.1213C104.538 93.1513 104.395 93.1516 104.256 93.1222L101.64 92.5672C100.086 94.1207 98.1422 94.961 96.7777 95.5507C96.6485 95.6065 96.5246 95.6601 96.4066 95.7118C95.9008 95.9336 95.311 95.7034 95.0892 95.1976C94.8674 94.6918 95.0976 94.102 95.6034 93.8802C95.7156 93.831 95.8296 93.7814 95.9449 93.7312C97.4722 93.0669 99.2469 92.2949 100.543 90.8134C100.782 90.5409 101.149 90.4186 101.504 90.4938L104.462 91.1214C104.958 91.0155 105.467 90.9121 105.991 90.8119L105.992 90.8117C106.521 90.7109 107.208 90.402 107.819 90.0716C108.112 89.9132 108.366 89.7619 108.546 89.6505C108.636 89.5949 108.707 89.5497 108.754 89.519C108.778 89.5037 108.796 89.492 108.807 89.4846L108.819 89.4766L108.821 89.4751ZM112.678 91.6449C112.768 91.0999 113.282 90.7307 113.827 90.8202C116.378 91.2393 119.146 91.551 121.713 91.551C122.067 91.551 122.394 91.7377 122.574 92.042L122.982 92.7316C123.488 93.5875 124.145 94.3453 124.92 94.9688L124.921 94.9699C125.438 95.3871 125.736 95.5563 126.078 95.654C126.458 95.7627 126.969 95.805 127.963 95.805C128.515 95.805 128.963 96.2527 128.963 96.805C128.963 97.3573 128.515 97.805 127.963 97.805C126.971 97.805 126.207 97.7708 125.528 97.577C124.812 97.3722 124.268 97.0129 123.665 96.5262C122.704 95.7525 121.889 94.8123 121.26 93.7504L121.14 93.5462C118.595 93.5045 115.931 93.1927 113.503 92.7938C112.958 92.7042 112.589 92.1899 112.678 91.6449ZM92.8186 93.7034C93.3348 93.8997 93.594 94.4774 93.3976 94.9936C92.4758 97.4168 91.4 98.5753 90.5635 99.4237C90.1252 99.8736 89.5367 100.147 88.9101 100.191C88.282 100.235 87.6597 100.046 87.1622 99.6602L87.1589 99.6577L86.8183 99.3913L83.9949 103.559C83.6806 104.023 83.2573 104.403 82.7622 104.665C82.4217 104.846 82.0544 104.967 81.6758 105.025C81.6318 105.084 81.5829 105.15 81.5297 105.222C81.2766 105.568 80.9281 106.066 80.5517 106.671C79.7918 107.891 78.949 109.495 78.5203 111.125C78.1967 112.358 77.4306 113.402 76.4471 114.134C76.4468 114.135 76.4465 114.135 76.4462 114.135L76.0964 114.397C76.087 114.405 76.0739 114.417 76.0578 114.432C76.0156 114.472 75.9555 114.531 75.8899 114.605C75.7478 114.763 75.6291 114.933 75.5732 115.074C75.5588 115.111 75.5519 115.135 75.5487 115.151C75.5907 115.196 75.7484 115.335 76.2139 115.476L76.2242 115.479L76.2269 115.48L76.2433 115.485C76.2588 115.49 76.2831 115.497 76.3159 115.507C76.3814 115.527 76.4808 115.555 76.6107 115.591C76.8704 115.662 77.2513 115.76 77.7264 115.865C78.6785 116.076 79.999 116.314 81.4753 116.424C84.4792 116.647 87.8938 116.322 90.2558 114.44C90.6877 114.096 91.3168 114.167 91.661 114.599C92.0052 115.031 91.9341 115.66 91.5022 116.004C88.5312 118.372 84.4677 118.652 81.327 118.418C79.7308 118.3 78.3123 118.044 77.2935 117.818C76.7831 117.705 76.3705 117.598 76.0831 117.52C75.9394 117.481 75.8269 117.448 75.7489 117.425C75.7099 117.414 75.6795 117.404 75.6582 117.398L75.6331 117.39L75.6278 117.388C74.8182 117.142 74.1566 116.751 73.8009 116.13C73.4239 115.473 73.5281 114.806 73.7141 114.337C73.895 113.881 74.1885 113.507 74.3994 113.271C74.5103 113.147 74.6119 113.047 74.6872 112.976C74.7251 112.94 74.7569 112.911 74.7808 112.89C74.7927 112.88 74.8027 112.871 74.8105 112.864L74.8205 112.856L74.8243 112.853L74.8258 112.851C74.8261 112.851 74.8271 112.85 75.468 113.618L74.8271 112.85C74.8408 112.839 74.8547 112.828 74.869 112.817L75.25 112.532L75.2518 112.531C75.9119 112.039 76.3894 111.366 76.5857 110.617C77.087 108.712 78.0453 106.912 78.8538 105.614C79.2616 104.959 79.6393 104.419 79.9162 104.04C80.0548 103.851 80.1686 103.702 80.2488 103.599C80.2889 103.547 80.3207 103.507 80.343 103.479L80.3692 103.446L80.3768 103.437L80.3792 103.434L80.38 103.433C80.3801 103.433 80.3805 103.432 81.155 104.065L80.38 103.433C80.5699 103.201 80.8549 103.065 81.1551 103.065C81.3887 103.065 81.6188 103.008 81.8252 102.898C82.0316 102.789 82.2081 102.631 82.3391 102.437C82.3391 102.437 82.3391 102.437 82.3391 102.437L85.7631 97.3831C85.9185 97.1537 86.1621 96.9991 86.4358 96.9561C86.7095 96.9131 86.9888 96.9856 87.2071 97.1563L88.3878 98.0798C88.3882 98.0801 88.3886 98.0804 88.389 98.0807C88.4975 98.1644 88.633 98.2053 88.7697 98.1957C88.9069 98.186 89.0357 98.1261 89.1315 98.0274L89.1369 98.0218C89.8621 97.2865 90.7391 96.3569 91.5284 94.2824C91.7247 93.7662 92.3024 93.507 92.8186 93.7034ZM75.5468 115.173C75.5464 115.174 75.5459 115.171 75.5466 115.164C75.5476 115.169 75.5472 115.173 75.5468 115.173ZM111.876 97.5527C112.107 98.0541 111.889 98.6483 111.387 98.8798L105.34 101.673C104.839 101.904 104.245 101.686 104.013 101.184C103.782 100.683 104 100.089 104.502 99.8572L110.549 97.0642C111.05 96.8326 111.644 97.0513 111.876 97.5527ZM121.307 97.5699C121.537 98.0718 121.317 98.6655 120.815 98.8959L115.361 101.399C114.859 101.629 114.265 101.409 114.035 100.907C113.805 100.405 114.025 99.8115 114.527 99.5811L119.981 97.0781C120.483 96.8478 121.076 97.068 121.307 97.5699ZM101.192 97.8356C101.544 98.2616 101.483 98.8919 101.057 99.2434L96.0574 103.368C95.6314 103.72 95.0011 103.659 94.6496 103.233C94.2982 102.807 94.3586 102.177 94.7846 101.826L99.7846 97.7006C100.211 97.3492 100.841 97.4096 101.192 97.8356ZM129.083 99.9749C129.519 99.6364 130.148 99.7157 130.486 100.152C130.824 100.587 131.087 101.143 131.314 101.639C131.352 101.723 131.391 101.807 131.429 101.891C131.631 102.335 131.83 102.772 132.072 103.209C132.635 104.222 133.364 105.101 134.603 105.563C135.121 105.756 135.384 106.332 135.191 106.849C134.998 107.367 134.422 107.63 133.905 107.437C132.048 106.745 131.01 105.416 130.324 104.18C130.039 103.667 129.802 103.146 129.601 102.703C129.565 102.623 129.53 102.546 129.496 102.472C129.256 101.949 129.08 101.603 128.906 101.378C128.567 100.942 128.647 100.313 129.083 99.9749ZM88.0525 105.757C87.7551 106.222 87.1372 106.358 86.6719 106.061C86.2064 105.764 86.0699 105.145 86.3671 104.68L87.21 105.218C86.3671 104.68 86.3669 104.68 86.3671 104.68L86.3692 104.677L86.3722 104.672L86.3804 104.659C86.387 104.649 86.3957 104.636 86.4065 104.62C86.428 104.589 86.4579 104.546 86.4956 104.494C86.5707 104.39 86.6784 104.249 86.8142 104.092C87.078 103.786 87.4835 103.375 87.9963 103.069C88.512 102.761 89.2235 102.51 90.0276 102.696C90.8345 102.883 91.5147 103.459 92.0741 104.34C92.9473 105.716 92.7809 107.334 92.3645 108.67C91.9408 110.029 91.1937 111.316 90.5878 112.227L90.5872 112.229C90.19 112.825 89.5986 113.264 88.9135 113.473C88.2285 113.682 87.4922 113.647 86.83 113.375C86.3194 113.164 86.076 112.58 86.2864 112.069C86.4968 111.558 87.0814 111.315 87.592 111.525C87.8265 111.622 88.0874 111.634 88.33 111.56C88.5726 111.486 88.7821 111.331 88.9227 111.12C89.4837 110.275 90.1133 109.171 90.455 108.075C90.8041 106.954 90.7915 106.051 90.3857 105.412C89.9972 104.8 89.701 104.673 89.5764 104.644C89.449 104.615 89.274 104.636 89.0217 104.786C88.7665 104.939 88.5225 105.173 88.3288 105.398C88.2359 105.506 88.1628 105.601 88.1143 105.668C88.0902 105.701 88.0726 105.727 88.0621 105.742L88.0519 105.758L88.0525 105.757ZM88.051 105.759C88.0509 105.759 88.0509 105.759 88.051 105.759ZM115.812 104.457C115.909 103.913 116.429 103.551 116.972 103.649L123.847 104.881C124.391 104.978 124.753 105.498 124.655 106.041C124.558 106.585 124.038 106.947 123.495 106.849L116.62 105.617C116.076 105.52 115.714 105 115.812 104.457ZM106.492 105.738C106.671 106.26 106.393 106.829 105.87 107.008L99.8704 109.066C99.348 109.245 98.7793 108.967 98.6001 108.444C98.4209 107.922 98.6991 107.353 99.2215 107.174L105.222 105.116C105.744 104.937 106.313 105.215 106.492 105.738ZM115.79 110.617C115.85 111.166 115.453 111.659 114.904 111.719L108.052 112.466C107.503 112.526 107.01 112.129 106.95 111.58C106.89 111.031 107.287 110.538 107.836 110.478L114.688 109.731C115.237 109.671 115.73 110.068 115.79 110.617ZM133.068 109.725C133.62 109.721 134.071 110.166 134.075 110.718C134.086 112.391 133.786 113.555 133.442 114.333C133.357 114.525 133.27 114.692 133.186 114.836C134.536 117.051 134.625 119.655 134.509 121.313C134.396 122.915 133.051 124.085 131.438 124.085H131.048C129.355 124.085 127.958 122.691 128.056 120.955C128.082 120.478 128.03 120.015 127.936 119.591C127.834 119.132 127.367 118.819 126.854 118.93C124.305 119.481 119.189 119.631 114.824 119.652C112.618 119.663 110.564 119.641 109.062 119.617C108.702 119.611 108.373 119.605 108.082 119.599C108.162 119.982 108.219 120.386 108.262 120.768L108.262 120.772C108.307 121.191 108.263 121.614 108.133 122.014C108.003 122.414 107.79 122.783 107.508 123.095C107.226 123.408 106.882 123.657 106.497 123.828C106.113 123.998 105.697 124.086 105.277 124.085L105.278 123.085L105.275 124.085M97.0335 118.121L97.5047 117.25L96.625 116.774C96.2423 117.698 96.242 117.698 96.2417 117.698L96.2596 117.705C96.2778 117.714 96.3079 117.727 96.3487 117.747C96.4303 117.785 96.5538 117.847 96.7084 117.932C96.8058 117.986 96.915 118.049 97.0335 118.121ZM92.9006 121.561C92.9006 121.561 92.9005 121.561 92.9006 121.561ZM90.3932 122.085C90.3932 122.085 90.3931 122.085 90.3932 122.085ZM87.6898 119.785C87.6899 119.784 87.6898 119.785 87.6898 119.785ZM106.635 118.565L106.664 117.565L106.706 117.567L106.833 117.57C106.944 117.573 107.108 117.577 107.319 117.582C107.741 117.592 108.35 117.605 109.095 117.617C110.587 117.642 112.626 117.663 114.814 117.652C119.24 117.63 124.128 117.474 126.431 116.976C127.965 116.643 129.537 117.571 129.888 119.157C130.014 119.725 130.091 120.374 130.052 121.067M106.635 118.565L106.664 117.565C106.274 117.554 105.912 117.771 105.739 118.121C105.566 118.471 105.612 118.89 105.857 119.194C105.858 119.195 105.867 119.206 105.882 119.233C105.898 119.261 105.917 119.301 105.938 119.354C105.982 119.461 106.028 119.602 106.071 119.775C106.158 120.123 106.225 120.546 106.274 120.986M133.068 109.725C132.516 109.729 132.071 110.18 132.075 110.732ZM132.075 110.732C132.085 112.154 131.829 113.034 131.612 113.525ZM131.612 113.525C131.503 113.772 131.401 113.927 131.339 114.009ZM131.339 114.009C131.309 114.05 131.288 114.073 131.281 114.081ZM131.281 114.081C130.908 114.429 130.856 115.003 131.164 115.413C132.477 117.158 132.631 119.502 132.513 121.173C132.48 121.655 132.073 122.085 131.438 122.085H131.048C130.459 122.085 130.022 121.611 130.052 121.067M120.074 111.51C120.217 110.977 120.765 110.66 121.299 110.803L127.56 112.48C128.093 112.623 128.41 113.171 128.267 113.705C128.124 114.238 127.576 114.555 127.042 114.412L120.781 112.735C120.248 112.592 119.931 112.044 120.074 111.51Z" fill="#195557"/>
<defs>
<filter id="filter0_dd_6967_21" x="0" y="0" width="204" height="204" filterUnits="userSpaceOnUse" color-interpolation-filters="sRGB">
<feFlood flood-opacity="0" result="BackgroundImageFix"/>
<feColorMatrix in="SourceAlpha" type="matrix" values="0 0 0 0 0 0 0 0 0 0 0 0 0 0 0 0 0 0 127 0" result="hardAlpha"/>
<feOffset dx="-8" dy="-8"/>
<feGaussianBlur stdDeviation="10"/>
<feColorMatrix type="matrix" values="0 0 0 0 1 0 0 0 0 1 0 0 0 0 1 0 0 0 1 0"/>
<feBlend mode="normal" in2="BackgroundImageFix" result="effect1_dropShadow_6967_21"/>
<feColorMatrix in="SourceAlpha" type="matrix" values="0 0 0 0 0 0 0 0 0 0 0 0 0 0 0 0 0 0 127 0" result="hardAlpha"/>
<feOffset dx="4" dy="4"/>
<feGaussianBlur stdDeviation="10"/>
<feColorMatrix type="matrix" values="0 0 0 0 0.76 0 0 0 0 0.8 0 0 0 0 0.79375 0 0 0 1 0"/>
<feBlend mode="normal" in2="effect1_dropShadow_6967_21" result="effect2_dropShadow_6967_21"/>
<feBlend mode="normal" in="SourceGraphic" in2="effect2_dropShadow_6967_21" result="shape"/>
</filter>
</defs>
</svg>
