<svg width="204" height="204" viewBox="0 0 204 204" fill="none" xmlns="http://www.w3.org/2000/svg">
<g filter="url(#filter0_dd_6967_23)">
<circle cx="104" cy="104" r="76" fill="#70908B"/>
<circle cx="104" cy="104" r="75.5" stroke="#94AFAB"/>
</g>
<path d="M121.759 98.909C121.196 97.6057 120.384 96.4247 119.369 95.432C118.354 94.4364 117.156 93.6452 115.842 93.1015C114.479 92.5354 113.018 92.2456 111.542 92.249C109.472 92.249 107.452 92.8159 105.697 93.8867C105.277 94.1429 104.878 94.4242 104.5 94.7308C104.122 94.4242 103.723 94.1429 103.303 93.8867C101.548 92.8159 99.5281 92.249 97.4579 92.249C95.9672 92.249 94.5227 92.5346 93.1579 93.1015C91.8394 93.6474 90.651 94.4326 89.6306 95.432C88.6143 96.4236 87.8026 97.6049 87.2412 98.909C86.6575 100.265 86.3594 101.706 86.3594 103.188C86.3594 104.586 86.6449 106.043 87.2118 107.526C87.6863 108.765 88.3666 110.05 89.2358 111.347C90.6132 113.4 92.507 115.542 94.8586 117.713C98.7555 121.312 102.615 123.798 102.778 123.899L103.774 124.537C104.214 124.818 104.781 124.818 105.222 124.537L106.217 123.899C106.381 123.794 110.236 121.312 114.137 117.713C116.489 115.542 118.383 113.4 119.76 111.347C120.629 110.05 121.314 108.765 121.784 107.526C122.351 106.043 122.636 104.586 122.636 103.188C122.641 101.706 122.342 100.265 121.759 98.909ZM104.5 121.215C104.5 121.215 89.5508 111.637 89.5508 103.188C89.5508 98.909 93.0907 95.4404 97.4579 95.4404C100.528 95.4404 103.19 97.1537 104.5 99.6564C105.81 97.1537 108.472 95.4404 111.542 95.4404C115.909 95.4404 119.449 98.909 119.449 103.188C119.449 111.637 104.5 121.215 104.5 121.215Z" fill="#195557"/>
<path d="M111.542 95.4404C108.472 95.4404 105.81 97.1537 104.5 99.6564C103.19 97.1537 100.528 95.4404 97.4579 95.4404C93.0907 95.4404 89.5508 98.909 89.5508 103.188C89.5508 111.637 104.5 121.215 104.5 121.215C104.5 121.215 119.449 111.637 119.449 103.188C119.449 98.909 115.909 95.4404 111.542 95.4404Z" fill="black" fill-opacity="0.1"/>
<defs>
<filter id="filter0_dd_6967_23" x="0" y="0" width="204" height="204" filterUnits="userSpaceOnUse" color-interpolation-filters="sRGB">
<feFlood flood-opacity="0" result="BackgroundImageFix"/>
<feColorMatrix in="SourceAlpha" type="matrix" values="0 0 0 0 0 0 0 0 0 0 0 0 0 0 0 0 0 0 127 0" result="hardAlpha"/>
<feOffset dx="-8" dy="-8"/>
<feGaussianBlur stdDeviation="10"/>
<feColorMatrix type="matrix" values="0 0 0 0 1 0 0 0 0 1 0 0 0 0 1 0 0 0 1 0"/>
<feBlend mode="normal" in2="BackgroundImageFix" result="effect1_dropShadow_6967_23"/>
<feColorMatrix in="SourceAlpha" type="matrix" values="0 0 0 0 0 0 0 0 0 0 0 0 0 0 0 0 0 0 127 0" result="hardAlpha"/>
<feOffset dx="4" dy="4"/>
<feGaussianBlur stdDeviation="10"/>
<feColorMatrix type="matrix" values="0 0 0 0 0.76 0 0 0 0 0.8 0 0 0 0 0.79375 0 0 0 1 0"/>
<feBlend mode="normal" in2="effect1_dropShadow_6967_23" result="effect2_dropShadow_6967_23"/>
<feBlend mode="normal" in="SourceGraphic" in2="effect2_dropShadow_6967_23" result="shape"/>
</filter>
</defs>
</svg>
